<svg xmlns="http://www.w3.org/2000/svg" xmlns:xlink="http://www.w3.org/1999/xlink" viewBox="0 0 953.98 440"><defs><style>.cls-1,.cls-10,.cls-13,.cls-2,.cls-4,.cls-5,.cls-6,.cls-8{fill:none;}.cls-1,.cls-13{stroke:#464646;}.cls-1,.cls-10,.cls-13,.cls-2,.cls-3,.cls-4,.cls-5,.cls-6,.cls-8{stroke-miterlimit:10;}.cls-1,.cls-10,.cls-3,.cls-8{stroke-width:2px;}.cls-2,.cls-3,.cls-4,.cls-5,.cls-6{stroke:#000;}.cls-10,.cls-13,.cls-2,.cls-3,.cls-4,.cls-5,.cls-6{stroke-linecap:round;}.cls-2{stroke-width:1.99px;}.cls-4{stroke-width:2.52px;}.cls-5{stroke-width:2.4px;}.cls-6{stroke-width:2.39px;}.cls-11,.cls-7{font-size:24px;font-family:Roboto-Regular, Roboto;}.cls-10,.cls-8{stroke:#d83a44;}.cls-11,.cls-9{fill:#d83a44;}.cls-12{clip-path:url(#clip-path);}.cls-13{stroke-width:3px;}</style><clipPath id="clip-path"><rect class="cls-1" x="564.18" y="168.04" width="93.75" height="116.2"/></clipPath><symbol id="Support" data-name="Support" viewBox="0 0 189 32"><line class="cls-2" x1="1" y1="31" x2="168" y2="31"/><line class="cls-3" x1="1" y1="31" x2="21" y2="1"/><line class="cls-3" x1="21.88" y1="31" x2="41.87" y2="1"/><line class="cls-3" x1="42.75" y1="31" x2="62.75" y2="1"/><line class="cls-3" x1="63.63" y1="31" x2="83.62" y2="1"/><line class="cls-3" x1="84.5" y1="31" x2="104.5" y2="1"/><line class="cls-3" x1="105.38" y1="31" x2="125.37" y2="1"/><line class="cls-3" x1="126.25" y1="31" x2="146.25" y2="1"/><line class="cls-3" x1="147.13" y1="31" x2="167.12" y2="1"/><line class="cls-3" x1="168" y1="31" x2="188" y2="1"/></symbol></defs><g id="Layer_2" data-name="Layer 2"><g id="A_Layer_25" data-name="A Layer 25"><path class="cls-4" d="M243.47,238.55a108.32,108.32,0,0,1-5.78,35.7c-.5,1.43-1,2.81-1.58,4.17-1.86,3.63-4.62,5.93-7.71,5.93-2.31,0-4.44-1.29-6.15-3.48a14,14,0,0,1-1.55-2.45c-.55-1.36-1.09-2.74-1.59-4.17a108.58,108.58,0,0,1-5.77-35.7c0-21.74,5.86-41.18,15.06-54.07C237.61,197.37,243.47,216.81,243.47,238.55Z"/><path class="cls-4" d="M296.9,238.55a108.58,108.58,0,0,1-5.77,35.7c-.5,1.43-1,2.81-1.59,4.17-1.86,3.63-4.62,5.93-7.7,5.93s-5.85-2.3-7.71-5.93c-.55-1.36-1.08-2.74-1.58-4.17a108.32,108.32,0,0,1-5.78-35.7c0-21.74,5.86-41.18,15.07-54.07C291,197.37,296.9,216.81,296.9,238.55Z"/><path class="cls-4" d="M350.33,238.55a108.58,108.58,0,0,1-5.77,35.7c-.5,1.43-1,2.81-1.59,4.17-1.86,3.63-4.62,5.93-7.7,5.93-2.31,0-4.45-1.29-6.16-3.48a15.33,15.33,0,0,1-1.55-2.45c-.55-1.36-1.08-2.74-1.58-4.17a108.58,108.58,0,0,1-5.78-35.7c0-21.74,5.86-41.18,15.07-54.07C344.47,197.37,350.33,216.81,350.33,238.55Z"/><path class="cls-4" d="M403.76,238.55a108.58,108.58,0,0,1-5.77,35.7c-.5,1.43-1,2.81-1.59,4.17-1.86,3.63-4.61,5.93-7.7,5.93s-5.84-2.3-7.7-5.93c-.56-1.36-1.09-2.74-1.59-4.17a108.58,108.58,0,0,1-5.77-35.7c0-21.74,5.86-41.18,15.06-54.07C397.9,197.37,403.76,216.81,403.76,238.55Z"/><path class="cls-5" d="M191.51,238.43a118.67,118.67,0,0,1-5.22,35.64c-.45,1.42-.93,2.8-1.43,4.16-1.69,3.63-4.18,5.92-7,5.92s-5.29-2.29-7-5.92c-.5-1.36-1-2.74-1.43-4.16a118.66,118.66,0,0,1-5.23-35.64c0-21.71,5.3-41.11,13.63-54C186.21,197.32,191.51,216.72,191.51,238.43Z"/><path class="cls-6" d="M564.18,225.15l-63.4-.17s-3.15-25.22-12.93-40.54c-6.54-10.17-15-16.25-24.14-16.25s-17.61,6.08-24.15,16.25c-6.55-10.17-15-16.25-24.15-16.25,0,0-14.52-1.9-26.71,16.29-7.24-10.19-16.55-16.29-26.72-16.29s-19.47,6.1-26.71,16.29c-7.24-10.19-16.55-16.29-26.72-16.29s-19.48,6.1-26.71,16.29c-7.24-10.19-16.55-16.29-26.72-16.29s-19.48,6.1-26.72,16.29c-7.24-10.19-16.54-16.29-26.71-16.29h.36c-9.2,0-17.61,6.09-24.16,16.26-6.55-10.17-15-16.26-24.16-16.26s-17.62,6.09-24.17,16.26C119.78,199.78,116.63,225,116.63,225l-63.44-.1"/><path class="cls-6" d="M425.94,238.38A118.54,118.54,0,0,0,431.16,274c.45,1.42.94,2.8,1.43,4.15,1.69,3.63,4.18,5.93,7,5.93s5.28-2.3,7-5.93c.5-1.35,1-2.73,1.43-4.15a118.54,118.54,0,0,0,5.22-35.62c0-21.69-5.29-41.08-13.61-53.94C431.24,197.3,425.94,216.69,425.94,238.38Z"/><use width="189" height="32" transform="translate(21.79 285.02) rotate(-90) scale(0.62 1)" xlink:href="#Support"/><text class="cls-7" transform="translate(496.54 326.34)">x&lt;0</text><g id="horizontalSupport"><line class="cls-8" y1="286.4" x2="839.89" y2="286.08"/><path class="cls-9" d="M849.06,286.08c-4.31,1.6-9.67,4.34-13,7.23l2.61-7.23-2.61-7.22C839.39,281.75,844.74,284.48,849.06,286.08Z"/></g><g id="vertical_reper" data-name="vertical reper"><line class="cls-10" x1="609.14" y1="12.07" x2="609.14" y2="427.93"/><path class="cls-9" d="M609.14,0c-2.11,5.68-5.7,12.73-9.51,17.09l9.51-3.44,9.51,3.44C614.84,12.73,611.25,5.68,609.14,0Z"/><path class="cls-9" d="M609.14,440c-2.11-5.68-5.7-12.73-9.51-17.09l9.51,3.44,9.51-3.44C614.84,427.27,611.25,434.32,609.14,440Z"/></g><text class="cls-7" transform="translate(795.16 315.95)">x</text><text class="cls-11" transform="translate(673.44 209.26)">m</text><g class="cls-12"><line class="cls-13" x1="952.48" y1="154.29" x2="802.48" y2="291.79"/><line class="cls-13" x1="932.48" y1="154.29" x2="782.48" y2="291.79"/><line class="cls-13" x1="912.48" y1="154.29" x2="762.48" y2="291.79"/><line class="cls-13" x1="892.48" y1="154.29" x2="742.48" y2="291.79"/><line class="cls-13" x1="872.48" y1="154.29" x2="722.48" y2="291.79"/><line class="cls-13" x1="852.48" y1="154.29" x2="702.48" y2="291.79"/><line class="cls-13" x1="832.48" y1="154.29" x2="682.48" y2="291.79"/><line class="cls-13" x1="812.48" y1="154.29" x2="662.48" y2="291.79"/><line class="cls-13" x1="792.48" y1="154.29" x2="642.48" y2="291.79"/><line class="cls-13" x1="772.48" y1="154.29" x2="622.48" y2="291.79"/><line class="cls-13" x1="752.48" y1="154.29" x2="602.48" y2="291.79"/><line class="cls-13" x1="732.48" y1="154.29" x2="582.48" y2="291.79"/><line class="cls-13" x1="712.48" y1="154.29" x2="562.48" y2="291.79"/><line class="cls-13" x1="692.48" y1="154.29" x2="542.48" y2="291.79"/><line class="cls-13" x1="672.48" y1="154.29" x2="522.48" y2="291.79"/><line class="cls-13" x1="652.48" y1="154.29" x2="502.48" y2="291.79"/><line class="cls-13" x1="632.48" y1="154.29" x2="482.48" y2="291.79"/><line class="cls-13" x1="612.48" y1="154.29" x2="462.48" y2="291.79"/><line class="cls-13" x1="592.48" y1="154.29" x2="442.48" y2="291.79"/><line class="cls-13" x1="572.48" y1="154.29" x2="422.48" y2="291.79"/><line class="cls-13" x1="552.48" y1="154.29" x2="402.48" y2="291.79"/></g><rect class="cls-1" x="564.18" y="168.04" width="93.75" height="116.2"/><path d="M643.54,208.7a8.36,8.36,0,0,1-3.69,2.42,15.33,15.33,0,0,1-5.29.86,10.43,10.43,0,0,1-5.34-1.33,8.8,8.8,0,0,1-3.54-3.86,13.54,13.54,0,0,1-1.28-5.94v-1.6a14.4,14.4,0,0,1,1.18-6.08,8.78,8.78,0,0,1,3.42-3.93,11.24,11.24,0,0,1,11.75.63,8.49,8.49,0,0,1,2.79,5.79h-4.7a4.74,4.74,0,0,0-1.43-2.95,4.58,4.58,0,0,0-3-.93,4.27,4.27,0,0,0-3.75,1.85,9.73,9.73,0,0,0-1.31,5.51v1.5a9.28,9.28,0,0,0,1.4,5.57,4.81,4.81,0,0,0,4.11,1.89,5.4,5.4,0,0,0,3.89-1.16v-4.05h-4.4v-3.56h9.23Z"/><path class="cls-9" d="M599,261.74a14.23,14.23,0,0,1-1.22,6.07,9.23,9.23,0,0,1-3.51,4,9.65,9.65,0,0,1-5.23,1.42,9.78,9.78,0,0,1-5.2-1.4,9.33,9.33,0,0,1-3.55-4,13.84,13.84,0,0,1-1.27-6v-1.16a14.11,14.11,0,0,1,1.25-6.1,9.28,9.28,0,0,1,3.53-4.05,10.33,10.33,0,0,1,10.42,0,9.28,9.28,0,0,1,3.53,4.05,13.91,13.91,0,0,1,1.25,6.08Zm-4.9-1.07a9.86,9.86,0,0,0-1.32-5.6,4.66,4.66,0,0,0-7.52,0,9.77,9.77,0,0,0-1.34,5.55v1.15a10,10,0,0,0,1.32,5.57,4.3,4.3,0,0,0,3.8,2,4.25,4.25,0,0,0,3.74-1.9,10,10,0,0,0,1.32-5.57Z"/><circle cx="609.14" cy="224.66" r="4"/></g></g></svg>