<?xml version="1.0" encoding="UTF-8" standalone="no"?>
<svg xmlns:dc="http://purl.org/dc/elements/1.1/" xmlns:cc="http://creativecommons.org/ns#" xmlns:rdf="http://www.w3.org/1999/02/22-rdf-syntax-ns#" xmlns:svg="http://www.w3.org/2000/svg" xmlns="http://www.w3.org/2000/svg" xmlns:sodipodi="http://sodipodi.sourceforge.net/DTD/sodipodi-0.dtd" xmlns:inkscape="http://www.inkscape.org/namespaces/inkscape" width="64px" height="64px" id="svg13564" version="1.1" inkscape:version="0.48.4 r9939" sodipodi:docname="hook spring science circle law stand   flexible.svg">
  <defs id="defs13566"/>
  <sodipodi:namedview id="base" pagecolor="#ffffff" bordercolor="#666666" borderopacity="1.0" inkscape:pageopacity="0.0" inkscape:pageshadow="2" inkscape:zoom="5.6" inkscape:cx="42.579777" inkscape:cy="30.513039" inkscape:document-units="px" inkscape:current-layer="layer1" showgrid="false" inkscape:window-width="1366" inkscape:window-height="705" inkscape:window-x="-8" inkscape:window-y="-8" inkscape:window-maximized="1"/>
  
  <g inkscape:label="Layer 1" inkscape:groupmode="layer" id="layer1" transform="translate(0,-988.36218)">
    <path id="rect4292-0" d="m 24.8442,997.6931 a 0.50005,0.50005 0 0 0 -0.34375,0.5 l 0,5 a 0.50005,0.50005 0 0 0 0.5,0.5 l 6.46875,0 0,2.4375 a 0.50219246,0.50219246 0 0 0 0.0625,0.5312 0.50219246,0.50219246 0 0 0 0,0.031 0.50005,0.50005 0 0 0 0.0312,0 0.50219246,0.50219246 0 0 0 0,0.031 0.50005,0.50005 0 0 0 0.0312,0 0.50219246,0.50219246 0 0 0 0.0625,0.062 0.50005,0.50005 0 0 0 0.0312,0 0.50219246,0.50219246 0 0 0 0,0.031 0.50005,0.50005 0 0 0 0.0312,0 0.50219246,0.50219246 0 0 0 0.0312,0.031 0.50005,0.50005 0 0 0 0.0312,0 0.50219246,0.50219246 0 0 0 0.0625,0.031 0.50005,0.50005 0 0 0 0.0312,0 0.50219246,0.50219246 0 0 0 0.0625,0 0.50005,0.50005 0 0 0 0.0312,0 c 0.0343,0 0.06,-0 0.0937,0 0.78589,0.052 1.40625,0.6999 1.40625,1.5 0,0.2085 -0.0496,0.3827 -0.125,0.5625 -0.45829,-0.3085 -1.00638,-0.4632 -1.53125,-0.4375 -0.57451,0.028 -1.12074,0.2741 -1.5625,0.6875 a 0.50005,0.50005 0 0 0 -0.0312,0.031 c -0.0169,0.016 -0.0459,0.014 -0.0625,0.031 a 0.50005,0.50005 0 0 0 -0.15625,0.1562 0.50005,0.50005 0 0 0 0,0.031 0.50005,0.50005 0 0 0 -0.0312,0.062 0.50005,0.50005 0 0 0 -0.0312,0.031 0.50005,0.50005 0 0 0 0,0.062 0.50005,0.50005 0 0 0 0.3125,0.5938 c 0.46116,0.4356 1.07709,0.6875 1.71875,0.6875 0.49978,0 0.952,-0.151 1.34375,-0.4063 0.13826,0.3524 0.1404,0.7409 0,1.0938 -0.45277,-0.2969 -0.98483,-0.4314 -1.5,-0.4063 -0.64009,0.031 -1.25695,0.3033 -1.71875,0.8125 a 0.50005,0.50005 0 0 0 -0.0625,0.062 0.50871314,0.50871314 0 0 0 -0.0312,0.062 0.50005,0.50005 0 0 0 0,0.4688 0.50871314,0.50871314 0 0 0 0,0.031 0.50005,0.50005 0 0 0 0.21875,0.2187 c 0.0108,0.01 0.0196,0.021 0.0312,0.031 0.87341,0.7922 2.16056,0.8581 3.09375,0.2188 0.1661,0.376 0.15997,0.8079 0,1.1875 -0.4605,-0.3133 -1.0024,-0.4633 -1.53125,-0.4375 -0.60507,0.029 -1.1728,0.2932 -1.625,0.75 a 0.50871314,0.50871314 0 0 0 -0.0312,0.031 c -0.0156,0.016 -0.0473,0.014 -0.0625,0.031 a 0.50005,0.50005 0 0 0 0.125,0.8437 c 0.0108,0.01 0.0196,0.021 0.0312,0.031 0.87341,0.7922 2.16056,0.8581 3.09375,0.2188 0.16069,0.38 0.13789,0.8085 -0.0312,1.1875 -0.45357,-0.2985 -0.98345,-0.4627 -1.5,-0.4375 -0.60336,0.029 -1.17333,0.2957 -1.625,0.75 a 0.50871314,0.50871314 0 0 0 -0.0312,0.031 c -0.0165,0.017 -0.0464,0.014 -0.0625,0.031 a 0.50005,0.50005 0 0 0 0.0937,0.8437 c 0.0157,0.015 0.045,0.015 0.0625,0.031 0.86264,0.7824 2.13216,0.8643 3.0625,0.25 0.14999,0.3599 0.14436,0.7622 0,1.125 -0.45277,-0.2968 -0.98483,-0.4314 -1.5,-0.4062 -0.64009,0.031 -1.25695,0.3033 -1.71875,0.8125 a 0.50005,0.50005 0 0 0 -0.0625,0.062 0.50871314,0.50871314 0 0 0 -0.0312,0.062 0.50005,0.50005 0 0 0 0,0.4687 0.50871314,0.50871314 0 0 0 0,0.031 0.50005,0.50005 0 0 0 0.21875,0.2188 c 0.0108,0.01 0.0196,0.021 0.0312,0.031 0.87341,0.7921 2.16056,0.8581 3.09375,0.2187 0.1661,0.3761 0.15997,0.8079 0,1.1875 -0.4605,-0.3132 -1.0024,-0.4633 -1.53125,-0.4375 -0.60507,0.029 -1.1728,0.2932 -1.625,0.75 a 0.50871314,0.50871314 0 0 0 -0.0312,0.031 c -0.0156,0.016 -0.0473,0.014 -0.0625,0.031 a 0.50005,0.50005 0 0 0 0.125,0.8438 c 0.0108,0.01 0.0196,0.021 0.0312,0.031 0.87341,0.7921 2.16056,0.8581 3.09375,0.2187 0.15559,0.3679 0.15329,0.7862 0,1.1563 -0.45357,-0.2985 -0.98345,-0.4627 -1.5,-0.4375 -0.62566,0.03 -1.22934,0.294 -1.6875,0.7812 a 0.50005,0.50005 0 0 0 -0.0625,0.062 0.50005,0.50005 0 0 0 0,0.031 0.50005,0.50005 0 0 0 -0.0937,0.094 0.50005,0.50005 0 0 0 -0.0312,0.062 0.50005,0.50005 0 0 0 0,0.031 0.50005,0.50005 0 0 0 -0.0312,0.062 0.50005,0.50005 0 0 0 0,0.031 0.50005,0.50005 0 0 0 0,0.031 0.50005,0.50005 0 0 0 0,0.094 0.50005,0.50005 0 0 0 0.0312,0.094 0.50005,0.50005 0 0 0 0.125,0.1875 0.50005,0.50005 0 0 0 0,0.031 0.50005,0.50005 0 0 0 0.0312,0 0.50005,0.50005 0 0 0 0.0312,0.031 c 0.005,0 0.0263,-0.01 0.0312,0 a 0.50005,0.50005 0 0 0 0.0312,0.031 c 0.0152,0.015 0.0134,0.046 0.0312,0.062 0.87341,0.7922 2.16056,0.8581 3.09375,0.2188 0.15611,0.3691 0.15488,0.7852 0,1.1562 -0.45357,-0.2985 -0.98345,-0.4627 -1.5,-0.4375 -0.64009,0.031 -1.25695,0.3033 -1.71875,0.8125 a 0.50005,0.50005 0 0 0 -0.0312,0.031 0.50871314,0.50871314 0 0 0 -0.0312,0.062 0.50005,0.50005 0 0 0 -0.0312,0.5625 0.50871314,0.50871314 0 0 0 0.0937,0.062 0.50005,0.50005 0 0 0 0.125,0.125 c 0.0108,0.01 0.0196,0.021 0.0312,0.031 0.86656,0.786 2.13107,0.8421 3.0625,0.2188 0.2387,0.5265 0.16339,1.1379 -0.25,1.5937 -0.28172,0.3106 -0.70568,0.4967 -1.125,0.5 a 0.50024408,0.50024408 0 0 0 -0.0625,0 0.50005,0.50005 0 0 0 -0.4375,0.5313 l 0,3.0937 c -2.05639,0.264 -3.65625,2.0295 -3.65625,4.1563 0,2.3082 1.87923,4.1875 4.1875,4.1875 2.30827,0 4.1875,-1.8793 4.1875,-4.1875 0,-2.1481 -1.63261,-3.92 -3.71875,-4.1563 l 0,-2.6562 c 0.51032,-0.104 0.98463,-0.3853 1.34375,-0.7813 0.77618,-0.8558 0.84849,-2.1029 0.25,-3.0312 0.50224,-0.8133 0.50006,-1.8263 0,-2.625 0.49817,-0.8076 0.48973,-1.8289 0,-2.625 0.52025,-0.8255 0.49014,-1.8788 -0.0312,-2.6875 0.50061,-0.8107 0.49521,-1.8274 0,-2.625 0.52082,-0.813 0.52832,-1.8482 0.0312,-2.6563 0.52025,-0.8254 0.49014,-1.8788 -0.0312,-2.6875 0.4959,-0.803 0.48138,-1.7993 0,-2.5937 0.26053,-0.3944 0.4375,-0.8385 0.4375,-1.3438 0,-1.2029 -0.86363,-2.2346 -2,-2.4687 l 0,-2.2188 6.53125,0 a 0.50005,0.50005 0 0 0 0.5,-0.5 l 0,-5 a 0.50005,0.50005 0 0 0 -0.5,-0.5 l -14,0 a 0.50005,0.50005 0 0 0 -0.0937,0 0.50005,0.50005 0 0 0 -0.0625,0 z m 0.65625,1 13,0 0,4 -6.40625,0 -0.0937,0 a 0.50005,0.50005 0 0 0 -0.0937,0 l -0.0937,0 -6.3125,0 0,-4 z m 6.34375,10.8125 c 0.27508,-0.017 0.56288,0.05 0.8125,0.1875 -0.20982,0.1109 -0.4316,0.1875 -0.6875,0.1875 -0.26306,0 -0.52727,-0.063 -0.75,-0.1875 0.19453,-0.1038 0.41039,-0.1741 0.625,-0.1875 z m 0,2.6562 c 0.27355,-0.017 0.56395,0.02 0.8125,0.1563 -0.44098,0.2516 -0.95514,0.2661 -1.40625,0.031 0.18806,-0.096 0.38776,-0.1746 0.59375,-0.1875 z m 0,2.6563 c 0.27835,-0.017 0.56062,0.046 0.8125,0.1875 -0.44682,0.2385 -0.99142,0.2187 -1.4375,-0.031 0.19453,-0.1038 0.41039,-0.1428 0.625,-0.1563 z m 0,2.6562 c 0.25727,-0.016 0.51314,0.068 0.75,0.1875 -0.42088,0.2007 -0.92622,0.2175 -1.34375,0 0.18806,-0.096 0.38776,-0.1745 0.59375,-0.1875 z m 0,2.6563 c 0.27355,-0.017 0.56395,0.02 0.8125,0.1562 -0.44098,0.2516 -0.95514,0.2662 -1.40625,0.031 0.18806,-0.096 0.38776,-0.1745 0.59375,-0.1875 z m 0,2.6562 c 0.27835,-0.017 0.56062,0.046 0.8125,0.1875 -0.44682,0.2385 -0.99142,0.2187 -1.4375,-0.031 0.19453,-0.1038 0.41039,-0.1428 0.625,-0.1562 z m 0.0312,2.6251 c 0.26618,-0.017 0.53792,0.059 0.78125,0.1875 -0.44247,0.2361 -0.99395,0.2738 -1.4375,0.031 0.20468,-0.1168 0.42762,-0.2045 0.65625,-0.2188 z m 0,2.6562 c 0.26395,-0.016 0.53952,0.062 0.78125,0.1875 -0.43377,0.2315 -0.93673,0.2282 -1.375,0 0.18806,-0.096 0.38776,-0.1746 0.59375,-0.1875 z m 0.125,7.5938 c 1.76783,0 3.1875,1.4196 3.1875,3.1875 0,1.7678 -1.41967,3.1875 -3.1875,3.1875 -1.76783,0 -3.1875,-1.4197 -3.1875,-3.1875 0,-1.7679 1.41967,-3.1875 3.1875,-3.1875 z" style="font-size:medium;font-style:normal;font-variant:normal;font-weight:normal;font-stretch:normal;text-indent:0;text-align:start;text-decoration:none;line-height:normal;letter-spacing:normal;word-spacing:normal;text-transform:none;direction:ltr;block-progression:tb;writing-mode:lr-tb;text-anchor:start;baseline-shift:baseline;color:#000000;fill:#000000;fill-opacity:1;stroke:none;stroke-width:1;marker:none;visibility:visible;display:inline;overflow:visible;enable-background:accumulate;font-family:Sans;-inkscape-font-specification:Sans" inkscape:connector-curvature="0"/>
  </g>

	
	
	<metadata>
		<rdf:RDF xmlns:rdf="http://www.w3.org/1999/02/22-rdf-syntax-ns#" xmlns:rdfs="http://www.w3.org/2000/01/rdf-schema#" xmlns:dc="http://purl.org/dc/elements/1.1/">
			<rdf:Description about="https://iconscout.com/legal#licenses" dc:title="Hook, Spring, Science, Circle, Law, Stand, Flexible" dc:description="Hook, Spring, Science, Circle, Law, Stand, Flexible" dc:publisher="Iconscout" dc:date="2016-12-14" dc:format="image/svg+xml" dc:language="en">
				<dc:creator>
					<rdf:Bag>
						<rdf:li>Chamestudio</rdf:li>
					</rdf:Bag>
				</dc:creator>
			</rdf:Description>
		</rdf:RDF>
    </metadata></svg>
