<?xml version="1.0" encoding="UTF-8" standalone="no"?>
<svg xmlns:dc="http://purl.org/dc/elements/1.1/" xmlns:cc="http://creativecommons.org/ns#" xmlns:rdf="http://www.w3.org/1999/02/22-rdf-syntax-ns#" xmlns:svg="http://www.w3.org/2000/svg" xmlns="http://www.w3.org/2000/svg" xmlns:sodipodi="http://sodipodi.sourceforge.net/DTD/sodipodi-0.dtd" xmlns:inkscape="http://www.inkscape.org/namespaces/inkscape" width="64px" height="64px" id="svg13564" version="1.1" inkscape:version="0.48.4 r9939" sodipodi:docname="pendulum stand circle rotate law center.svg">
  <defs id="defs13566"/>
  <sodipodi:namedview id="base" pagecolor="#ffffff" bordercolor="#666666" borderopacity="1.0" inkscape:pageopacity="0.0" inkscape:pageshadow="2" inkscape:zoom="5.6" inkscape:cx="25.847826" inkscape:cy="28.910332" inkscape:document-units="px" inkscape:current-layer="layer1" showgrid="false" inkscape:window-width="1366" inkscape:window-height="705" inkscape:window-x="-8" inkscape:window-y="-8" inkscape:window-maximized="1"/>
  
  <g inkscape:label="Layer 1" inkscape:groupmode="layer" id="layer1" transform="translate(0,-988.36218)">
    <path inkscape:connector-curvature="0" style="font-size:medium;font-style:normal;font-variant:normal;font-weight:normal;font-stretch:normal;text-indent:0;text-align:start;text-decoration:none;line-height:normal;letter-spacing:normal;word-spacing:normal;text-transform:none;direction:ltr;block-progression:tb;writing-mode:lr-tb;text-anchor:start;baseline-shift:baseline;color:#000000;fill:#000000;fill-opacity:1;stroke:none;stroke-width:1px;marker:none;visibility:visible;display:inline;overflow:visible;enable-background:accumulate;font-family:Sans;-inkscape-font-specification:Sans" d="m 3.1847989,993.61713 a 0.50005,0.50005 0 0 0 -0.4375,0.5 l 0,3 a 0.50005,0.50005 0 0 0 0.5,0.5 l 20.5625001,0 c 0.14725,0.4198 0.4909,0.7493 0.90625,0.9063 l 0,0.094 0.78125,0 5.125,6.87507 c -0.0123,0.7936 -0.0399,1.7037 0,2.625 l 1,-0.031 c -0.0181,-0.4199 -0.004,-0.8327 0,-1.25 l 7.59375,10.1876 c -1.83479,1.6563 -3,4.038 -3,6.6874 0,2.2185 0.81496,4.2354 2.15625,5.8126 l -0.21875,0.1562 -0.0312,0.031 -0.21875,0.125 0.53125,0.875 0.25,-0.1562 0,-0.031 0.0312,0 0.34375,-0.25 c 1.50037,1.4153 3.47517,2.311 5.65625,2.4374 l 0,12.375 -0.75,-1.0624 -0.8125,0.5937 1.625,2.2813 a 0.50005,0.50005 0 0 0 0.8125,0 c 0.51834,-0.6643 1.17084,-1.4488 1.75,-2.2813 l -0.8125,-0.5625 c -0.25806,0.371 -0.53784,0.7124 -0.8125,1.0625 l 0,-12.4063 c 4.74479,-0.2511 8.5625,-4.1958 8.5625,-9 0,-4.9645 -4.06661,-9.0312 -9.03125,-9.0312 -1.97023,0 -3.79193,0.6359 -5.28125,1.7188 l -7.65625,-10.25 1.375,0.4062 0.28125,-0.9688 -2.65625,-0.8125 -0.0312,0 -4.9375,-6.65627 c 0.1303,-0.1463 0.24684,-0.3119 0.3125,-0.5 l 21.59375,0 a 0.50005,0.50005 0 0 0 0.5,-0.5 l 0,-3 a 0.50005,0.50005 0 0 0 -0.5,-0.5 l -45.0000001,0 a 0.50005,0.50005 0 0 0 -0.0625,0 z m 0.5625,1 44.0000001,0 0,2 -21.125,0 c -0.21452,-0.5677 -0.7676,-1 -1.40625,-1 -0.64087,0 -1.19334,0.4293 -1.40625,1 l -20.0625001,0 0,-2 z m 21.4687501,2 c 0.28206,0 0.5,0.2179 0.5,0.5 0,0.2821 -0.21794,0.5 -0.5,0.5 -0.28207,0 -0.5,-0.2179 -0.5,-0.5 0,-0.2821 0.21793,-0.5 0.5,-0.5 z m -0.5,3 0,0.99997 1,0 0,-0.99997 -1,0 z m 0,1.99997 0,1 1,0 0,-1 -1,0 z m 0,2 0,1 1,0 0,-1 -1,0 z m 0,2.0001 0,1 1,0 0,-1 -1,0 z m 0,2 0,1 1,0 0,-1 -1,0 z m 0,2 0,1 1,0 0,-1 -1,0 z m 0,2 0,1 1,0 0,-1 -1,0 z m 0,2 0,1 1,0 0,-1 -1,0 z m 0,2 0,1 1,0 0,-1 -1,0 z m 20.53125,0.125 c 4.4242,0 7.96875,3.5446 7.96875,7.9687 0,2.5868 -1.2342,4.8599 -3.125,6.3126 l -0.34375,-0.4688 -0.8125,0.5938 0.34375,0.4374 c -1.05271,0.6144 -2.26737,0.9875 -3.5625,1.0626 l 0,-5.7188 0.1875,0.25 0.8125,-0.5938 -0.25,-0.3124 c 0.46079,-0.3678 0.75,-0.9235 0.75,-1.5626 0,-1.0999 -0.86883,-2 -1.96875,-2 -0.40283,0 -0.74713,0.1362 -1.0625,0.3438 l -3.59375,-4.8125 c 1.30793,-0.9397 2.9109,-1.5 4.65625,-1.5 z m -20.53125,1.875 0,1 1,0 0,-1 -1,0 z m 15.09375,0.2187 3.6875,4.9376 c -0.15084,0.2808 -0.25,0.5985 -0.25,0.9374 0,0.904 0.64076,1.6602 1.46875,1.9063 l 0,6.0313 c -4.16998,-0.2738 -7.4375,-3.6943 -7.4375,-7.9376 0,-2.3255 0.95955,-4.4225 2.53125,-5.875 z m -15.09375,1.7813 0,1 1,0 0,-1 -1,0 z m 0,2 0,1 1,0 0,-1 -1,0 z m 20.53125,0.875 c 0.67529,0 1.1875,0.5434 1.1875,1.2187 0,0.5065 -0.28992,0.939 -0.71875,1.125 l 0,-0.1874 a 0.50005,0.50005 0 0 0 -0.0312,-0.5313 0.50005,0.50005 0 0 0 0,-0.031 0.50005,0.50005 0 0 0 -0.0312,0 0.50005,0.50005 0 0 0 0,-0.031 0.50005,0.50005 0 0 0 -0.0312,-0.031 0.50005,0.50005 0 0 0 0,-0.031 l -0.96875,-1.3125 c 0.18252,-0.1082 0.36649,-0.1875 0.59375,-0.1875 z m -1.1875,1.0313 0.125,0.1874 -0.0937,0.094 0.28125,0.375 -0.125,0.1562 c -0.11698,-0.1876 -0.21875,-0.3879 -0.21875,-0.625 0,-0.064 0.0219,-0.1264 0.0312,-0.1874 z m -19.34375,0.094 0,1 1,0 0,-1 -1,0 z m 18.46875,1.9063 -0.6875,0.6562 0.6875,0.7188 0.71875,-0.6876 0.0312,-0.031 -0.59375,-0.5312 -0.15625,-0.125 z m -18.46875,0.094 0,0.125 c -4.72054,0.2707 -8.46875,4.1485 -8.46875,8.9375 0,4.9646 4.03536,9 9,9 4.96464,0 8.96875,-4.0354 8.96875,-9 0,-4.8042 -3.75815,-8.6893 -8.5,-8.9375 l 0,-0.125 -1,0 z m 22.59375,0.75 -0.78125,0.5937 0.59375,0.8126 0.8125,-0.625 -0.625,-0.7813 z m -22.0625,0.3437 c 3.62855,0 6.67748,2.3854 7.65625,5.6876 l -0.0937,0.031 -0.0312,0.031 -0.125,0.031 0.3125,0.9375 0.15625,-0.031 c 0.0683,0.4218 0.0937,0.8395 0.0937,1.2812 0,4.4242 -3.54455,8 -7.96875,8 -4.11361,0 -7.4538,-3.074 -7.90625,-7.0625 l 0.71875,0.031 0.0312,-1 -0.84375,-0.031 c 0.0338,-4.3948 3.59695,-7.9063 8,-7.9063 z m 16.53125,0.1563 -0.21875,0.2187 -0.0312,0 -0.46875,0.4063 0.625,0.7813 0.53125,-0.4376 0.0312,0 0.21875,-0.25 -0.6875,-0.7187 z m 6.75,1.0937 -0.78125,0.5938 0.59375,0.8125 0.78125,-0.625 -0.59375,-0.7813 z m -8.25,0.1876 -0.40625,0.3124 -0.0312,0.031 -0.3125,0.25 0.5625,0.8125 0.375,-0.2812 0.0312,0 0.40625,-0.375 -0.625,-0.75 z m -3.21875,2.2187 -0.65625,0.375 -0.0312,0.031 -0.15625,0.062 0.46875,0.9063 0.15625,-0.094 0.0312,0 0,-0.031 0.6875,-0.4063 -0.5,-0.8437 z m 13.90625,0.75 -0.8125,0.625 0.625,0.7813 0.78125,-0.5938 -0.59375,-0.8125 z m -15.625,0.1869 -0.71875,0.375 -0.0312,0 -0.125,0.062 0.375,0.9063 0.15625,-0.063 0.0312,0 0.75,-0.4062 -0.4375,-0.8741 z m -10.09375,1.375 c -1.05346,0 -1.89689,0.8387 -1.96875,1.875 l -0.25,0.031 0.0937,1 0.34375,-0.031 c 0.32754,0.664 0.99573,1.1562 1.78125,1.1562 0.97294,0 1.76806,-0.7318 1.9375,-1.6562 l 0.34375,-0.062 0.0312,0 0.5625,-0.125 -0.21875,-0.9687 -0.53125,0.125 -0.0312,0 -0.21875,0.031 c -0.26399,-0.7816 -1.00423,-1.375 -1.875,-1.375 z m 26.9375,0.031 -0.8125,0.625 0.625,0.7813 0.78125,-0.5937 -0.59375,-0.8126 z m -20.46875,0.125 -0.71875,0.25 -0.0312,0 -0.1875,0.063 0.28125,0.9687 0.21875,-0.062 0.0312,-0.031 0.71875,-0.25 -0.3125,-0.9376 z m -1.875,0.5938 -0.65625,0.1875 -0.0312,0 -0.25,0.062 0.21875,0.9688 0.28125,-0.063 0.0312,-0.031 0.65625,-0.1875 -0.25,-0.9375 z m -4.59375,0.031 c 0.67529,0 1.1875,0.5435 1.1875,1.2188 0,0.6753 -0.51221,1.25 -1.1875,1.25 -0.59087,0 -1.07321,-0.4425 -1.1875,-1 l -0.0312,-0.3125 c 0.0366,-0.6426 0.5671,-1.1563 1.21875,-1.1563 z m 0.71875,0.7813 -0.40625,0.062 -0.5625,0.062 0.125,1 0.5625,-0.062 0.0312,0 0.4375,-0.062 -0.1875,-1 z m 27.40625,0.062 -0.78125,0.625 0.625,0.7812 0.78125,-0.5937 -0.625,-0.8125 z m -31.34375,0.3438 -0.96875,0.031 0.0312,1 1,-0.031 0.0312,0 -0.0625,-0.5 0,-0.1563 0,-0.3437 -0.0312,0 z m -2.9375,0.031 0,1 1,0.031 0,-1 -1,-0.031 z m 35.5,1.2188 -0.78125,0.5937 0.59375,0.8125 0.8125,-0.625 -0.625,-0.7812 z m 1.21875,1.5937 -0.78125,0.5937 0.59375,0.8126 0.8125,-0.625 -0.625,-0.7813 z m 1.21875,1.5937 -0.78125,0.5938 0.59375,0.8125 0.8125,-0.625 -0.625,-0.7813 z m 1.21875,1.5938 -0.78125,0.5938 0.59375,0.7812 0.78125,-0.5938 -0.59375,-0.7812 z m 2.96875,1.0625 -0.96875,0.062 c 0.0371,0.7206 0.0121,1.4536 0,2.1562 l -2.0625,-0.5937 -0.28125,0.9687 2.6875,0.7813 a 0.50005,0.50005 0 0 0 0.65625,-0.4687 c 0.003,-0.8369 0.021,-1.8884 -0.0312,-2.9063 z m -1.75,0.5 -0.8125,0.625 0.625,0.7813 0.78125,-0.5938 -0.59375,-0.8125 z" id="path4485-1"/>
  </g>

	
	
	<metadata>
		<rdf:RDF xmlns:rdf="http://www.w3.org/1999/02/22-rdf-syntax-ns#" xmlns:rdfs="http://www.w3.org/2000/01/rdf-schema#" xmlns:dc="http://purl.org/dc/elements/1.1/">
			<rdf:Description about="https://iconscout.com/legal#licenses" dc:title="Pendulum, Stand, Circle, Rotate, Law, Center" dc:description="Pendulum, Stand, Circle, Rotate, Law, Center" dc:publisher="Iconscout" dc:date="2016-12-14" dc:format="image/svg+xml" dc:language="en">
				<dc:creator>
					<rdf:Bag>
						<rdf:li>Chamestudio</rdf:li>
					</rdf:Bag>
				</dc:creator>
			</rdf:Description>
		</rdf:RDF>
    </metadata></svg>
