<svg xmlns="http://www.w3.org/2000/svg" viewBox="0 0 64 64"><path d="M15.5,56h33a1.5,1.5,0,0,1,0,3h-33a1.5,1.5,0,0,1,0-3Z"/><polygon points="17 51.83 47 46.21 47 48.17 17 53.79 17 51.83"/><polygon points="26.67 42.02 42.57 45 37.33 45.98 21.43 43 26.67 42.02"/><polygon points="17 39.83 47 34.21 47 36.17 17 41.79 17 39.83"/><polygon points="26.67 30.02 42.57 33 37.33 33.98 21.43 31 26.67 30.02"/><polygon points="17 27.83 47 22.21 47 24.17 17 29.79 17 27.83"/><polygon points="26.67 18.02 42.57 21 37.33 21.98 21.43 19 26.67 18.02"/><polygon points="17 15.83 47 10.21 47 12.17 17 17.79 17 15.83"/><path d="M50,6.5A1.5,1.5,0,0,1,48.5,8h-33a1.5,1.5,0,0,1,0-3h33A1.5,1.5,0,0,1,50,6.5Z"/></svg>